Coordinates
version=1
nRows=16
nColumns=36
inDegrees=yes

Units are S.I. units (second, meters, Newtons, ...)
If the header above contains a line with 'inDegrees', this indicates whether rotational values are in degrees (yes) or radians (no).

endheader
time	pelvis_tilt	pelvis_list	pelvis_rotation	pelvis_tx	pelvis_ty	pelvis_tz	hip_flexion_r	hip_adduction_r	hip_rotation_r	knee_angle_r	knee_angle_r_beta	ankle_angle_r	subtalar_angle_r	mtp_angle_r	hip_flexion_l	hip_adduction_l	hip_rotation_l	knee_angle_l	knee_angle_l_beta	ankle_angle_l	subtalar_angle_l	mtp_angle_l	lumbar_extension	lumbar_bending	lumbar_rotation	arm_flex_r	arm_add_r	arm_rot_r	elbow_flex_r	pro_sup_r	arm_flex_l	arm_add_l	arm_rot_l	elbow_flex_l	pro_sup_l
      5.73333330	    -20.58210845	      7.07701545	    -14.51567577	      0.99552630	      0.90202913	      0.07238742	     57.71954964	    -10.85193408	     -2.32884877	     64.93439651	      1.13331902	     29.65134904	     -2.30557572	     -7.49999987	     57.67441323	     -9.23532871	     -3.31133273	     62.40575133	      1.08918583	     28.54166141	     -2.89940871	     -7.49999987	    -14.20825772	     -1.81341692	     -1.15839794	      2.60828546	    -19.83122922	     16.26422612	     72.06519732	     75.79095775	     11.28736930	    -32.88263548	     20.22057272	     98.59359152	     84.72342158
      5.75000000	    -20.65816756	      7.05445939	    -14.51368595	      0.99474001	      0.90136552	      0.07187930	     58.60179688	    -11.02756444	     -2.73182129	     66.24775114	      1.15624138	     31.11519503	     -1.49980344	     -7.49999987	     58.73518717	     -9.21501731	     -2.98222485	     63.87866175	      1.11489297	     28.96735756	     -3.65737217	     -7.49999987	    -15.39901114	     -1.92576662	      0.01348979	      7.24072788	    -17.71893655	     16.19788608	     70.10747360	     84.23929783	     18.17847359	    -30.45343843	     24.34352920	     94.09257318	     87.82149252
      5.76666670	    -20.82235452	      6.98947411	    -14.39652779	      0.98769079	      0.90108505	      0.06771065	     58.98754536	    -11.21273652	     -3.17760235	     66.47264395	      1.16016650	     31.70757321	     -1.03759469	     -7.49999987	     59.41583096	     -9.07455216	     -2.75065976	     64.38866333	      1.12379418	     28.99497680	     -3.90376139	     -7.49999987	    -16.37304677	     -1.80194721	     -0.12675649	     12.79815974	    -16.16309068	     18.30768807	     69.82444103	     85.59013204	     23.37920167	    -28.32473714	     26.17113861	     92.56968025	     88.25317547
      5.78333330	    -21.06367398	      6.96474859	    -14.20238860	      0.98247715	      0.90575391	      0.06342575	     59.16773633	    -11.48018523	     -3.61050029	     65.96911790	      1.15137831	     31.43574755	     -1.10163987	     -7.49999987	     59.75707462	     -8.83784195	     -2.59093695	     64.09313795	      1.11863629	     28.58252226	     -4.10461312	     -7.49999987	    -17.27328977	     -1.77335348	      0.87611129	     16.71750807	    -15.23145894	     17.81899492	     71.71037852	     92.69645985	     28.64853928	    -25.54360757	     29.41579490	     90.96571767	     90.63462175
      5.80000000	    -21.14749620	      6.90235322	    -14.01689649	      0.98049271	      0.91136118	      0.06304764	     58.66998914	    -11.66811532	     -4.07504434	     64.80651352	      1.13108704	     30.79681690	     -1.41242477	     -7.49999987	     59.46417090	     -8.50173502	     -2.38219132	     63.13203777	      1.10186192	     27.80235320	     -4.48763004	     -7.49999987	    -17.72105413	     -1.67572949	      0.77938416	     21.22683376	    -14.67797393	     20.64557184	     74.15568865	     91.87561696	     31.82647682	    -23.44230933	     31.49260399	     91.49046655	     89.53670960
      5.81666670	    -21.42465212	      6.94281723	    -13.82590492	      0.97545533	      0.91292998	      0.05988947	     58.34673117	    -11.80463681	     -4.30765725	     63.51400220	      1.10852846	     29.66591656	     -2.28806951	     -7.49999987	     59.33284527	     -8.18691029	     -2.30874643	     62.02462824	      1.08253398	     26.73941028	     -4.91945843	     -7.49999987	    -17.31294608	     -1.68268031	      0.90975343	     25.56979367	    -14.32451959	     23.42075131	     76.75607102	     93.16322019	     34.90391733	    -21.42317049	     33.62350511	     92.61905934	     90.50638732
      5.83333330	    -21.61613068	      6.94821450	    -13.73481061	      0.96970683	      0.92260782	      0.05651385	     57.81986322	    -11.90002062	     -4.58340811	     61.90745614	      1.08048894	     28.64456010	     -2.61362684	     -7.49999987	     59.05420804	     -7.95939524	     -2.30692528	     60.74652003	      1.06022678	     25.91798964	     -5.05783585	     -7.49999987	    -17.18306570	     -1.67112154	      1.09289668	     30.31474307	    -14.56838133	     26.44730175	     79.96578698	     94.65024236	     38.44019471	    -19.59049466	     35.77303347	     93.64194773	     91.74760904
      5.85000000	    -21.75230055	      6.93142277	    -13.48002316	      0.96983479	      0.93208100	      0.05581565	     56.76841698	    -11.99728601	     -4.97706006	     59.63859596	      1.04088986	     27.03419142	     -3.39595106	     -7.49999987	     58.12847726	     -7.54649359	     -2.24092842	     58.50512720	      1.02110710	     24.67206655	     -5.46936764	     -7.49999987	    -16.45984570	     -1.76031250	      1.40355338	     32.01869576	    -14.00532376	     26.01711684	     83.96832630	    102.15144172	     40.79936302	    -17.46987338	     36.89056994	     94.03518016	    100.13405051
      5.86666670	    -21.84001951	      6.88761457	    -13.27668809	      0.95882452	      0.95068567	      0.04777862	     55.30387925	    -12.02422267	     -5.48359947	     56.39893086	      0.98434704	     24.83805469	     -4.21609249	     -7.49999987	     56.73694210	     -7.19605446	     -2.35715675	     55.27280381	      0.96469241	     22.96786891	     -5.62530406	     -7.49999987	    -16.24089114	     -1.54438948	      1.13067490	     35.73514733	    -13.84681421	     27.83653456	     85.87594201	    102.37734447	     43.69201222	    -16.13407077	     38.34529372	     94.23909133	    100.52195346
      5.88333330	    -21.73019569	      6.78220622	    -13.02899051	      0.95970417	      0.96502564	      0.04760758	     53.14388382	    -11.98789864	     -6.09695662	     52.54348858	      0.91705688	     22.40083159	     -5.16744242	     -7.49999987	     54.70673223	     -6.69391132	     -2.32681430	     51.40714213	      0.89722389	     20.72866311	     -6.09241738	     -7.49999987	    -15.89385307	     -1.47450915	      0.81210073	     37.85263695	    -12.89822490	     28.34395146	     87.84173966	    102.45847558	     44.80935837	    -14.87692773	     39.56978547	     95.13295769	    100.92408019
      5.90000000	    -21.24350510	      6.50643828	    -12.88115625	      0.96353149	      0.97879210	      0.05088644	     50.29026442	    -11.69452534	     -6.71831107	     48.45931444	      0.84577459	     20.28627903	     -5.90176570	     -7.49999987	     51.92759117	     -6.37530098	     -2.21075190	     47.29349577	      0.82542722	     18.55079505	     -6.29920939	     -7.49999987	    -15.76780967	     -1.61465111	      1.31989005	     38.33484918	    -11.77911402	     27.05441580	     89.33004885	    102.97123139	     45.70329971	    -13.37424505	     40.99788037	     96.41473424	    103.95779420
      5.91666670	    -20.75782483	      6.24567607	    -12.85733503	      0.95980409	      0.99220900	      0.04680489	     47.67572867	    -11.34155624	     -7.25158392	     44.59981177	      0.77841356	     17.97913723	     -6.61145307	     -7.49999987	     49.30993166	     -6.18502418	     -2.18070519	     43.35416257	      0.75667288	     16.50928432	     -6.38728400	     -7.49999987	    -15.71147551	     -1.70753096	      1.16574182	     39.74843432	    -10.37545050	     26.40095786	     89.38870367	    102.73463106	     47.07289013	    -12.19442742	     40.89812620	     97.34877000	    103.87019876
      5.93333330	    -20.37438824	      5.94330625	    -12.70378838	      0.96429282	      0.99942949	      0.05051550	     45.28477064	    -10.89806090	     -7.67841548	     41.13760156	      0.71798659	     16.02899021	     -7.39547453	     -7.49999987	     47.05135832	     -6.10117759	     -2.13475864	     40.02399479	      0.69855049	     14.91607590	     -6.27572796	     -7.49999987	    -15.44106736	     -1.74672392	      1.00497008	     39.54124369	     -9.13221216	     25.41197703	     91.06655777	    102.68330963	     47.26422292	    -11.56759225	     40.72252820	    100.14722012	    104.12369845
      5.95000000	    -19.97312449	      5.63270407	    -12.62144300	      0.96073899	      1.00953330	      0.04702497	     42.96375004	    -10.40016106	     -8.06801675	     37.70641246	      0.65810105	     14.09885540	     -7.94442292	     -7.49999987	     44.95490714	     -6.09437651	     -2.18585450	     36.91738421	      0.64432991	     13.38813100	     -6.15745590	     -7.49999987	    -15.29752858	     -1.68920989	      1.36839728	     40.50731815	     -9.35051932	     24.66008393	     92.27266695	    102.58934429	     47.91253525	    -11.04365241	     39.23434260	    101.43105236	    104.29762226
      5.96666670	    -19.30591721	      5.26436900	    -12.56913725	      0.96478453	      1.01720334	      0.05086085	     40.16761820	     -9.80146756	     -8.42852885	     34.00015021	      0.59341457	     12.42308692	     -8.35695040	     -7.49999987	     42.22363035	     -6.03607205	     -2.09046027	     33.36384810	      0.58230900	     11.76470630	     -6.21383005	     -7.49999987	    -14.91071768	     -1.67891429	      1.52404998	     41.65768932	     -9.71765644	     24.80941725	     92.99462234	    102.20822185	     47.97469558	    -11.08188700	     36.73920726	    102.02080520	    105.04397703
      5.98333330	    -18.69960286	      4.95319200	    -12.61190497	      0.96575626	      1.02360410	      0.05095447	     37.72581698	     -9.20683428	     -8.53638525	     30.79735358	      0.53751522	     10.77350760	     -9.02629379	     -7.49999987	     39.58624313	     -6.07169878	     -2.10173217	     29.93117072	      0.52239748	     10.15842002	     -6.07952444	     -7.49999987	    -14.37956348	     -1.62426725	      1.65215557	     42.34549168	     -9.92424299	     25.30818392	     94.88695749	    101.73622837	     47.57250559	    -10.64926990	     34.76992900	    104.39882381	    105.07507635
